<svg width="18" height="16" viewBox="0 0 18 16" fill="none" xmlns="http://www.w3.org/2000/svg">
<path d="M15.3057 1.76193V1.94994L1.17836 4.7366C0.685343 4.83405 0.333496 5.23468 0.333496 5.69929V8.65231C0.333496 9.11692 0.685343 9.51754 1.17836 9.61499L3.54183 10.0806V14.5583C3.54183 15.1027 4.01987 15.4443 4.61127 15.4443H9.9585C10.5499 15.4443 11.0279 15.1017 11.0279 14.5583V11.5571L15.3057 12.4007V12.5897C15.3057 13.134 15.7838 13.574 16.3752 13.574C16.9666 13.574 17.4446 13.134 17.4446 12.5897V11.6053V2.74627V1.76193C17.4446 1.21759 16.9666 0.777588 16.3752 0.777588C15.7838 0.777588 15.3057 1.21759 15.3057 1.76193ZM5.68072 13.4756V10.5029L8.88905 11.1358V13.4756H5.68072Z" fill="white"/>
</svg>
